<svg height="1152" viewBox="0 0 768 768" width="1152" xmlns="http://www.w3.org/2000/svg"><g fill="#0b8f48" transform="matrix(.1 0 0 -.1 181.5 648)"><path d="m1655 4730c-93-44-138-115-153-240l-7-55-535-3-534-2-33-32c-38-36-43-74-16-115 37-56-45-53 1633-53 1130 0 1557 3 1573 11 71 37 89 102 43 156l-24 28-544 5-543 5-6 71c-4 39-13 81-20 95-35 61-73 100-124 123l-54 26-308-1c-280 0-312-2-348-19zm668-123c51-33 85-135 55-165-9-9-106-12-375-12h-363l-6 26c-9 37 2 91 26 122 37 47 71 51 365 49 240-2 274-4 298-20z"/><path d="m1697 4093c-4-3-7-25-7-48 0-22-5-46-12-53-9-9-139-12-523-12h-511l-52-26c-55-27-107-83-135-146-19-41-22-174-7-298 5-41 14-136 20-210 5-74 14-173 20-220 9-79 23-223 39-412 8-95 32-128 93-128 50 0 74 13 94 51 13 27 14 44 5 113-5 44-13 122-16 171-3 50-10 128-15 175-12 101-26 262-44 495-15 188-10 216 40 235 39 15 977 13 992-2 7-7 12-29 12-50 0-25 5-41 15-44 8-3 69 27 137 68 68 40 144 85 171 98 26 14 47 27 47 30-1 14-21 30-75 60-33 18-108 62-166 97-114 67-112 66-122 56z"/><path d="m2352 3957c-48-51-33-134 29-156 22-7 174-11 466-11 487 0 497-1 508-62 7-43-15-354-46-623-5-49-14-148-19-220-14-185-28-314-36-327-4-6-27-8-56-6-34 4-51 1-54-7-3-7 15-55 39-106 81-170 117-251 117-260 0-26 33-3 67 46 21 31 73 104 116 163 42 58 76 111 74 117-2 5-20 11-40 13-57 5-60 14-48 164 18 232 31 370 41 463 6 50 15 144 20 210s14 177 21 246c11 114 10 130-7 184-20 65-65 122-129 164l-40 26-500 3-501 3z"/><path d="m1915 3134c-204-24-415-124-545-259l-35-36 19-32c10-18 27-48 38-67 10-19 31-56 46-81 15-26 63-110 107-188 47-81 86-141 95-141 8 0 26 21 40 48 13 26 57 102 97 168 40 67 73 124 73 127 0 4 27 51 60 105 33 55 60 103 60 108 0 4 6 15 14 23 7 9 25 36 38 61 14 25 39 70 57 101l32 57-23 6c-23 6-119 6-173 0z"/><path d="m2150 3034c-25-43-60-105-78-138-19-34-63-109-98-167-35-59-64-114-64-123 0-14 44-16 460-16 496 0 476-2 447 51-83 154-202 281-344 367-72 43-190 92-238 98l-40 5z"/><path d="m1236 2707c-51-80-85-161-113-265-26-96-24-354 3-432l19-55 298-3c234-2 297 0 297 10 0 7-16 39-35 71s-35 60-35 63c0 2-34 61-75 130s-75 128-75 130-30 54-66 115c-68 114-126 217-146 256-20 40-37 35-72-20z"/><path d="m2275 2501c-5-9 101-202 197-359 21-34 38-64 38-66 0-3 27-51 61-108s75-128 91-158c72-130 70-129 109-72 64 90 118 243 140 396 11 78 11 104-5 210-9 67-24 131-32 144-14 22-15 22-304 22-170 0-291-4-295-9z"/><path d="m651 2238c-10-25-41-94-107-236-24-52-44-100-44-108 0-10 13-14 44-14 34 0 46-4 50-17 11-39 36-285 56-558 5-66 14-160 20-210 5-49 15-146 21-215 21-256 33-293 109-363 79-74 106-78 487-75l335 3 24 28c17 21 24 40 24 72 0 38-4 47-33 69l-34 26h-322-323l-28 28c-22 22-29 41-34 83-10 105-28 305-36 419-5 63-14 160-19 215-28 266-36 357-36 435v85l50 3c62 4 73 14 49 45-11 14-26 35-34 47s-40 56-70 99c-30 42-68 95-84 119-32 47-52 53-65 20z"/><path d="m2300 2019c-40-68-103-177-141-241s-69-119-69-122c0-2-41-73-91-156-51-85-88-157-85-165 11-31 245-11 376 31 118 38 252 119 338 203l52 51-25 40c-14 22-25 42-25 45 0 4-124 218-159 275-6 8-21 38-36 65-14 28-34 61-44 74l-19 24z"/><path d="m3238 1875c-35-19-45-56-58-214-6-69-15-169-21-221-5-52-14-147-19-210-38-486-45-536-76-567l-23-23h-351c-223 0-358 4-371 10-14 8-19 21-19 54 0 23-3 45-6 49-3 3-24-5-45-19-21-13-41-24-44-24-2 0-50-27-106-60-55-33-104-60-107-60-4-1-20-11-36-24l-29-24 137-81c75-44 138-81 141-81s23-11 45-25c45-28 47-26 52 40l3 40 390 5 390 5 53 29c96 53 140 126 153 255 4 47 13 142 18 211 6 69 15 163 21 210s15 146 20 220c6 74 15 169 20 210 11 86 13 241 4 265-8 20-56 45-86 45-13-1-35-7-50-15z"/><path d="m1186 1848c16-52 94-168 159-237 108-113 233-195 372-241 82-28 101-26 121 11 25 45 166 291 223 387 27 46 49 88 49 93s-188 9-466 9h-465z"/></g></svg>