<?xml version="1.0" encoding="iso-8859-1"?><!-- Uploaded to: SVG Repo, www.svgrepo.com, Generator: SVG Repo Mixer Tools -->
<svg height="800px" id="Layer_1" version="1.1" viewBox="0 0 512 512" width="800px"
    xmlns="http://www.w3.org/2000/svg" xml:space="preserve">
<path style="fill:#027372;" d="M272.605,0h-33.211c-22.891,0-41.514,18.622-41.514,41.514v33.211h16.605V41.514
	c0-13.735,11.173-24.908,24.908-24.908h33.211c13.734,0,24.908,11.173,24.908,24.908v33.211h16.605V41.514
	C314.119,18.622,295.497,0,272.605,0z" />
    <polygon style="fill:#02ACAB;"
        points="352.865,434.53 352.865,512 419.286,512 419.286,467.719 " />
    <g>
	<polygon style="fill:#42C8C6;"
        points="239.395,434.508 92.714,467.719 92.714,512 386.076,512 386.076,467.719 	" />
        <polygon style="fill:#42C8C6;" points="256,85.795 81.643,130.076 82.728,163.286 386.076,467.719 419.286,467.719
		430.357,130.076 	" />
</g>
    <polygon style="fill:#81E3E2;"
        points="396.061,163.286 386.076,467.719 92.714,467.719 82.728,163.286 " />
    <path style="fill:#027372;" d="M408.216,52.584h-33.211l33.211,77.492h33.211V85.795C441.427,67.529,426.482,52.584,408.216,52.584z
	" />
    <path style="fill:#02ACAB;" d="M408.216,85.795v44.281H70.573V85.795c0-18.266,14.945-33.211,33.211-33.211h271.222
	C393.271,52.584,408.216,67.529,408.216,85.795z" />
    <g>
	<path style="fill:#42C8C6;" d="M338.19,442.811c-0.045,0-0.092,0-0.138-0.001c-4.585-0.075-8.24-3.852-8.165-8.438l4.446-271.223
		c0.074-4.539,3.777-8.167,8.299-8.167c0.045,0,0.092,0,0.138,0.001c4.585,0.075,8.24,3.852,8.165,8.438l-4.446,271.223
		C346.415,439.183,342.712,442.811,338.19,442.811z" />
        <path style="fill:#42C8C6;" d="M173.809,442.811c-4.522,0-8.224-3.628-8.299-8.167l-4.446-271.223
		c-0.075-4.585,3.58-8.362,8.165-8.438c0.047,0,0.093-0.001,0.138-0.001c4.522,0,8.224,3.628,8.299,8.167l4.446,271.223
		c0.075,4.585-3.58,8.362-8.165,8.438C173.902,442.811,173.855,442.811,173.809,442.811z" />
        <path style="fill:#42C8C6;" d="M256,442.811c-4.585,0-8.303-3.717-8.303-8.303V163.286c0-4.585,3.717-8.303,8.303-8.303
		c4.586,0,8.303,3.717,8.303,8.303v271.222C264.303,439.093,260.586,442.811,256,442.811z" />
</g>
    <path style="fill:#027372;" d="M438.659,138.378H73.341c-4.585,0-8.303-3.717-8.303-8.303c0-4.585,3.717-8.303,8.303-8.303h365.319
	c4.586,0,8.303,3.717,8.303,8.303C446.962,134.661,443.246,138.378,438.659,138.378z" />
</svg>