<?xml version="1.0" encoding="iso-8859-1"?>

<!DOCTYPE svg PUBLIC "-//W3C//DTD SVG 1.1//EN"
    "http://www.w3.org/Graphics/SVG/1.1/DTD/svg11.dtd"><!-- Uploaded to: SVG Repo, www.svgrepo.com, Generator: SVG Repo Mixer Tools -->
<svg height="800px" id="_x36_" version="1.1" viewBox="0 0 512 512" width="800px"
	xmlns="http://www.w3.org/2000/svg" xml:space="preserve">
<g>
	<g>
		<polygon style="fill:#D2AA4A;"
            points="0.012,131.343 0.012,380.658 232.514,511.988 232.514,0.012 		" />
        <polygon style="fill:#C19840;" points="465.028,131.343 465.028,380.658 385.355,425.679 311.716,467.268 232.514,512 232.514,0
					" />
        <polygon style="fill:#D6AE51;" points="465.028,131.343 385.355,176.364 385.102,176.508 311.716,176.508 311.716,217.952
			232.514,262.685 0,131.343 79.347,86.502 152.805,45.022 232.514,0 		" />
        <g>
			<polygon style="fill:#ECC683;"
                points="385.355,176.364 311.897,217.844 79.347,86.502 152.805,45.022 			" />
		</g>
        <g>
			<polygon style="fill:#D2A95F;" points="385.355,176.508 385.355,295.602 311.716,337.19 311.716,217.952 311.897,217.844 
				385.102,176.508 			" />
		</g>
        <g style="opacity:0.1;">
			<g>
				<path style="fill:#040000;" d="M162.882,455.635L53.073,395.214l2.032-145.077l117.686,58.469L162.882,455.635z M61.982,388.769
					l92.254,50.38l7.696-122.687l-97.75-49.02L61.982,388.769z" />
			</g>
            <g>
				<path style="fill:#040000;" d="M146.203,325.107l-0.917,16.422c-1.354,24.255-17.599,35.491-36.097,25.702
					c-18.256-9.66-32.408-36.509-31.821-60.565l0.397-16.28l13.968,7.086l1.312,28.714l16.114-19.873L146.203,325.107z" />
                <polygon style="fill:#040000;"
                    points="113.357,391.228 103.354,385.857 104.07,366.713 114.166,372.063 				" />
                <polygon style="fill:#040000;"
                    points="125.036,408.284 91.029,389.893 91.495,375.198 125.745,393.535 				" />
			</g>
		</g>
	</g>
    <polygon style="opacity:0.05;fill:#171716;" points="232.514,0 232.514,511.988 232.514,512 311.716,467.268 385.355,425.679
		465.028,380.658 465.028,131.343 	" />
</g>
</svg>