<?xml version="1.0" encoding="iso-8859-1"?><!-- Uploaded to: SVG Repo, www.svgrepo.com, Generator: SVG Repo Mixer Tools -->
<svg height="800px" id="Layer_1" version="1.1" viewBox="0 0 512 512" width="800px"
    xmlns="http://www.w3.org/2000/svg" xml:space="preserve">
<path style="fill:#959CB5;" d="M192.136,2.014c-3.695-3.072-9.161-2.572-12.228,1.11s-2.568,9.153,1.11,12.221l52.068,43.39
	l11.119-13.33L192.136,2.014z" />
    <path style="fill:#C7CFE2;" d="M341.412,43.391H170.59c-6.049,0-11.55,3.217-14.807,8.315
	c-9.059,14.182-21.274,26.397-21.274,26.397v399.186c0,0,12.215,12.215,21.274,26.397c3.256,5.097,8.758,8.315,14.807,8.315h170.822
	c6.049,0,11.55-3.217,14.807-8.315c9.059-14.183,21.273-26.397,21.273-26.397V78.103c0,0-12.215-12.215-21.274-26.397
	C352.962,46.607,347.46,43.391,341.412,43.391z" />
    <path style="fill:#AFB9D2;" d="M253.081,503.686c-6.147-14.182-14.437-26.397-14.437-26.397V78.103c0,0,8.289-12.215,14.436-26.397
	c2.21-5.097,5.943-8.315,10.047-8.315h-92.538c-6.049,0-11.55,3.216-14.806,8.315c-9.059,14.182-21.274,26.397-21.274,26.397
	v399.186c0,0,12.215,12.215,21.274,26.397c3.255,5.097,8.757,8.315,14.806,8.315h92.538C259.023,512,255.29,508.783,253.081,503.686
	z" />
    <path style="fill:#FFDC64;" d="M377.491,477.289H134.509c-4.792,0-8.678-3.886-8.678-8.678V86.781c0-4.792,3.886-8.678,8.678-8.678
	h242.983c4.792,0,8.678,3.886,8.678,8.678v381.83C386.169,473.403,382.285,477.289,377.491,477.289z" />
    <path style="fill:#FFC850;" d="M229.966,468.611V86.781c0-4.792,3.886-8.678,8.678-8.678H134.509c-4.792,0-8.678,3.886-8.678,8.678
	v381.83c0,4.792,3.886,8.678,8.678,8.678h104.135C233.852,477.289,229.966,473.403,229.966,468.611z" />
    <g>
	<path style="fill:#FFFFFF;" d="M350.95,277.696c0-7.373-0.856-14.746-2.543-21.902c-1.11-4.67-5.806-7.589-10.441-6.453
		c-4.67,1.098-7.551,5.771-6.457,10.436c1.381,5.855,2.085,11.886,2.085,17.92c0,25.582-12.318,48.546-31.949,62.752
		c2.046-3.796,1.141-8.567-2.458-11.134c-3.907-2.788-9.322-1.877-12.11,2.025l-18.178,25.487c-1.738,2.436-2.094,5.593-0.949,8.36
		c1.144,2.763,3.636,4.741,6.584,5.237l30.873,5.17c0.483,0.08,0.966,0.118,1.441,0.118c4.161,0,7.839-3.005,8.551-7.246
		c0.789-4.724-2.398-9.199-7.127-9.992l-1.896-0.318C333.567,341.236,350.95,311.308,350.95,277.696z" />
        <path style="fill:#FFFFFF;" d="M238.086,353.212c-31.921-7.541-55.03-33.88-59.005-65.751c1.622,2.57,4.373,4.098,7.284,4.098
		c1.289,0,2.594-0.284,3.822-0.894c4.305-2.114,6.068-7.318,3.957-11.614l-13.822-28.081c-1.322-2.687-3.932-4.5-6.915-4.805
		c-2.974-0.322-5.899,0.953-7.729,3.318l-19.187,24.733c-2.941,3.784-2.245,9.238,1.534,12.174
		c3.805,2.949,9.245,2.254,12.178-1.538l1.091-1.406c2.482,41.753,31.68,76.944,72.807,86.656c0.669,0.161,1.339,0.233,2,0.233
		c3.932,0,7.491-2.69,8.44-6.682C245.645,358.988,242.754,354.314,238.086,353.212z" />
        <path style="fill:#FFFFFF;" d="M289.933,219.429c-1.322,4.606,1.331,9.411,5.941,10.737l30.084,8.656
		c0.789,0.229,1.594,0.34,2.398,0.34c2.11,0,4.186-0.771,5.797-2.225c2.229-2,3.272-5.004,2.754-7.953l-5.406-30.835
		c-0.839-4.724-5.33-7.886-10.051-7.046c-4.721,0.827-7.873,5.326-7.051,10.047l0.347,1.98
		c-16.559-13.1-37.052-20.382-58.745-20.382c-29.424,0-56.703,13.31-74.847,36.521c-2.949,3.775-2.28,9.229,1.492,12.182
		c1.593,1.238,3.474,1.839,5.339,1.839c2.585,0,5.135-1.144,6.848-3.335c14.831-18.97,37.128-29.852,61.17-29.852
		c15.737,0,30.679,4.736,43.314,13.275C295.172,212.875,291.124,215.29,289.933,219.429z" />
</g>
    <g>
	<path style="fill:#FFF8C1;" d="M181.153,219.268c-2.949,3.775-2.28,9.229,1.492,12.182c1.593,1.238,3.474,1.839,5.339,1.839
		c2.585,0,5.135-1.144,6.848-3.335c9.264-11.849,21.44-20.542,35.136-25.398v-18.062
		C210.861,191.911,193.773,203.124,181.153,219.268z" />
        <path style="fill:#FFF8C1;" d="M160.204,284.852l1.091-1.406c2.396,40.326,29.752,74.46,68.672,85.501V350.62
		c-27.626-9.801-47.261-34.091-50.885-63.159c1.622,2.57,4.373,4.098,7.284,4.098c1.289,0,2.594-0.284,3.822-0.894
		c4.305-2.114,6.068-7.318,3.957-11.614l-13.822-28.081c-1.322-2.687-3.932-4.5-6.915-4.805c-2.974-0.322-5.899,0.953-7.729,3.318
		l-19.187,24.733c-2.941,3.784-2.245,9.238,1.534,12.174C151.831,289.339,157.272,288.645,160.204,284.852z" />
</g>
</svg>