<?xml version="1.0" encoding="iso-8859-1"?><!-- Uploaded to: SVG Repo, www.svgrepo.com, Generator: SVG Repo Mixer Tools -->
<svg id="Layer_1" version="1.1" viewBox="0 0 512 512" xmlns="http://www.w3.org/2000/svg" xml:space="preserve">
<path style="fill:#AED5F3;" d="M333.395,107.163H178.605V0h154.791V107.163z" />
    <g>
	<path style="fill:#78B9EB;" d="M333.395,107.163H256V0h77.395V107.163z" />
        <path style="fill:#78B9EB;" d="M404.837,512H107.163V238.14h297.674V512z" />
</g>
    <path style="fill:#5A8BB0;" d="M404.837,512H256V238.14h148.837V512z" />
    <path style="fill:#FFC170;" d="M404.837,273.86H107.163V71.442h297.674V273.86z" />
    <path style="fill:#FF9811;" d="M404.837,273.86H256V71.442h148.837V273.86z" />
    <g>
	<polygon style="fill:#FFFFFF;" points="291.721,154.791 273.86,154.791 273.86,136.93 238.14,136.93 238.14,154.791 
		220.279,154.791 220.279,190.512 238.14,190.512 238.14,208.372 273.86,208.372 273.86,190.512 291.721,190.512 	" />
        <rect style="fill:#FFFFFF;" height="35.721" width="71.442" x="220.279" y="416.744" />
</g>
</svg>