<?xml version="1.0" encoding="iso-8859-1"?><!-- Uploaded to: SVG Repo, www.svgrepo.com, Generator: SVG Repo Mixer Tools -->
<svg id="Layer_1" version="1.1" viewBox="0 0 512 512" xmlns="http://www.w3.org/2000/svg" xml:space="preserve">
<path style="fill:#00AD94;" d="M353.469,251.873v223.932c0,19.958-16.238,36.195-36.195,36.195H194.728
	c-19.958,0-36.195-16.238-36.195-36.195V251.873c0-29.048,10.867-56.79,30.595-78.117l27.052-29.257V0h79.663v144.541l27.031,29.215
	C342.602,195.082,353.469,222.824,353.469,251.873z" />
    <path style="fill:#008878;" d="M353.469,251.873v223.932c0,19.958-16.238,36.195-36.195,36.195h-61.273V0h39.842v144.541
	l27.031,29.215C342.602,195.082,353.469,222.824,353.469,251.873z" />
    <rect style="fill:#FFC473;" height="173.41" width="121.5" x="158.531" y="264.16" />
    <rect style="fill:#FF9B00;" height="173.41" width="24.03" x="256.001" y="264.16" />
    <rect style="fill:#DFCCBE;" height="46.947" width="121.5" x="158.531" y="264.16" />
    <rect style="fill:#C9AD91;" height="46.947" width="24.03" x="256.001" y="264.16" />
    <rect style="fill:#FF3D63;" height="31.347" width="94.04" x="208.981" />
    <rect style="fill:#FF0335;" height="31.347" width="47.02" x="256.001" />
</svg>